<svg width="83" height="82" viewBox="0 0 83 82" fill="#55bb06" xmlns="http://www.w3.org/2000/svg">
    <path d="M26.1057 0.0535523C26.1057 0.0535523 30.6009 -0.308461 32.7034 0.849982C34.6804 1.93922 55.2512 29.215 58.5451 33.6128C58.9598 34.1626 59.609 34.5256 60.3439 34.5531C72.4482 34.9956 82.1696 36.9388 82.8029 40.3818C82.8401 40.4934 82.8583 40.6241 82.8572 40.7543C82.8583 40.8844 82.8401 41.0151 82.8028 41.1267C82.1695 44.5698 72.4483 46.513 60.344 46.9555C59.609 46.983 58.9598 47.346 58.5451 47.8958C55.2513 52.2936 34.6804 79.5693 32.7035 80.6586C30.6009 81.817 26.1057 81.455 26.1057 81.455C26.1057 81.455 35.9661 60.241 37.3436 55.6797C38.5037 51.7699 38.8662 48.005 38.7212 46.4845C27.9908 45.9053 18.2754 45.0365 13.7803 44.24L5.15244 54.3764C5.15244 54.3764 4.78993 54.8108 3.9924 54.8832C3.26737 54.9556 0.22226 54.9556 0.22226 54.9556L3.77489 42.0679C3.77489 42.0679 2.61485 41.6335 1.81732 41.3439C1.16479 41.1267 1.09212 40.8267 1.09212 40.7543C1.09212 40.6819 1.16481 40.3818 1.81733 40.1646C2.61486 39.875 3.77491 39.4406 3.77491 39.4406L0.222277 26.5529C0.222277 26.5529 3.26739 26.5529 3.99241 26.6253C4.78994 26.6977 5.15246 27.1322 5.15246 27.1322L13.7803 37.2685C18.2755 36.4721 27.9908 35.6033 38.7212 35.024C38.8662 33.5036 38.5036 29.7386 37.3436 25.8289C35.9661 21.2675 26.1057 0.0535523 26.1057 0.0535523Z"/>
</svg>
